<svg width="40" height="40" viewBox="0 0 512 512" xmlns="http://www.w3.org/2000/svg"><path d="m435.4 20.48h-318.2c-25.602 0-46.379 18.078-46.379 40.238v365.2c0 0.62109 0.16016 1.1797 0.19922 1.8008-0.16016 1.3398-0.19922 2.7188-0.19922 4.1016 0 22.738 18.48 41.219 41.219 41.219h83.66v9.3594c0 3.4414 1.8398 6.5 4.7617 8.0391 3.3203 1.6797 7.2812 0.92188 9.7812-1.8984l17.262-19.262 18.219 19.559c1.6406 1.7383 3.7812 2.6602 6 2.6602 1.2812 0 2.5586-0.30078 3.7383-0.92188 2.8594-1.4805 4.6602-4.5586 4.6602-7.9805l-0.019532-9.5195h175.3c3.1797 0 5.7383-2.5586 5.7383-5.7383v-18.379c0-3.1797-2.5586-5.7383-5.7383-5.7383h-12.641v-22.68h12.641c3.1797 0 5.7383-2.5586 5.7383-5.7383v-388.58c0.058593-3.1797-2.5586-5.7383-5.7383-5.7383zm-5.7188 370.12h-283.14v-358.6h283.14zm-347.36-329.88c0-15.879 15.66-28.719 34.859-28.719h17.82v358.66h-22.98c-11.68 0-22.219 4.9219-29.738 12.738v-342.68zm113.36 382.46h-83.66c-6.1406 0-11.359-5.2188-11.359-11.359s5.2188-11.359 11.359-11.359h83.66zm52.941 31.961-13.359-14.34c-2.1016-2.2617-4.8594-3.4805-7.7812-3.4805h-0.10156c-2.9609 0.058594-5.7812 1.3398-7.8398 3.6406l-12.34 13.781v-54.242h41.418zm181.06-13.578h-169.54v-6.9219h169.56l0.019531 6.9219zm-18.398-18.379h-151.14v-22.68h151.2v22.68zm18.398-34.199h-317.66c-12.602 0-22.84 10.238-22.84 22.84 0 12.602 10.238 22.84 22.84 22.84h83.66v6.9219l-83.66-0.019531c-16.379 0-29.738-13.32-29.738-29.738 0-16.379 13.32-29.738 29.738-29.738h317.64zm-250.02-67.977c11.621 0 21.039 9.4805 21.039 21.039 0 3.1797 2.5586 5.7383 5.7383 5.7383h163.22c3.1797 0 5.7383-2.5586 5.7383-5.7383 0-11.621 9.4805-21.039 21.039-21.039 3.1797 0 5.7383-2.5586 5.7383-5.7383v-247.86c0-3.1797-2.5586-5.7383-5.7383-5.7383-11.621 0-21.039-9.4805-21.039-21.039 0-3.1797-2.5586-5.7383-5.7383-5.7383h-163.18c-3.1797 0-5.7383 2.5586-5.7383 5.7383 0 11.621-9.4805 21.039-21.039 21.039-3.1797 0-5.7383 2.5586-5.7383 5.7383v247.86c-0.039063 3.1211 2.5195 5.7383 5.6992 5.7383zm5.7812-248.38c13.359-2.3984 23.922-12.961 26.32-26.32h152.78c2.3984 13.359 12.961 23.922 26.32 26.32v237.36c-13.359 2.3984-23.922 12.961-26.32 26.32h-152.82c-2.3984-13.359-12.961-23.922-26.32-26.32v-237.36zm35.738 109.62h133.84c3.1797 0 5.7383-2.5586 5.7383-5.7383v-64c0-3.1797-2.5586-5.7383-5.7383-5.7383l-133.84 0.019531c-3.1797 0-5.7383 2.5586-5.7383 5.7383v63.938c0 3.2188 2.5586 5.7812 5.7383 5.7812zm5.7383-64h122.32v52.48h-122.32zm3.1211 127.9c0-3.1797 2.5586-5.7383 5.7383-5.7383h57.703c3.1797 0 5.7383 2.5586 5.7383 5.7383s-2.5586 5.7383-5.7383 5.7383h-57.66c-3.1602 0-5.7812-2.5586-5.7812-5.7383zm89.559 5.7383c-3.1797 0-5.7383-2.5586-5.7383-5.7383s2.5586-5.7383 5.7383-5.7383h19.398c3.1797 0 5.7383 2.5586 5.7383 5.7383s-2.5586 5.7383-5.7383 5.7383zm-49.059 23.641c0 3.1797-2.5586 5.7383-5.7383 5.7383h-28.98c-3.1797 0-5.7383-2.5586-5.7383-5.7383 0-3.1797 2.5586-5.7383 5.7383-5.7383h28.98c3.1211 0.019531 5.7383 2.5781 5.7383 5.7383zm74.18 0c0 3.1797-2.5586 5.7383-5.7383 5.7383h-48.121c-3.1797 0-5.7383-2.5586-5.7383-5.7383 0-3.1797 2.5586-5.7383 5.7383-5.7383h48.121c3.1797 0.019531 5.7383 2.5781 5.7383 5.7383z"/></svg>