<svg width="40" height="40" version="1.1" viewBox="0 0 512 512" xmlns="http://www.w3.org/2000/svg">
 <path d="m451.42 189.86-12.379-9.6016-21.34-59.102v0.019531c-4.5-12.461-13.82-22.582-25.84-28.102-12.02-5.5391-25.758-6.0195-38.16-1.3398l-19.84 7.2617-49.281-38.621c-16.82-13.02-40.34-13.02-57.16 0l-166.84 129.48c-11.32 8.8984-17.922 22.52-17.922 36.918v187.74-0.019531c0 25.84 20.879 46.82 46.719 46.941h333.24c25.84-0.12109 46.719-21.102 46.719-46.941v-187.74 0.019532c0-14.398-6.6016-28.02-17.922-36.918zm2.1406 18.141-3.4219 2.7812-4.2617-11.738h-0.019531c3.0586 2.5195 5.6602 5.5586 7.6797 8.9609zm-95.582-106.66c9.6992-3.5781 20.422-3.1211 29.781 1.2383 9.3789 4.3594 16.621 12.281 20.141 22l33.5 92.578-163.2 128-0.019531 0.019531c-13.078 10.02-31.281 10.02-44.359 0l-29.441-23.898 138.88-50.559c2.6992-0.94141 4.1406-3.8984 3.1992-6.6211-0.94141-2.6992-3.9219-4.1406-6.6211-3.1992l-145.28 52.922-62.078-48.219 256-93.66c1.3203-0.42188 2.3984-1.3789 3-2.6211 0.60156-1.2383 0.67969-2.6797 0.19922-3.9805-1.0781-2.6992-4.0586-4.0781-6.8203-3.1992l-262.2 95.781-58.66-44.578c3.9219-4.2188 8.7188-7.5 14.078-9.6016zm-123.32-32.641c13.02-10.262 31.359-10.262 44.379 0l44.578 34.34-248.74 90.238c-1.9805 0.94141-3.9219 2-5.7617 3.1992l142.5-111.14zm-181.54 345.8v-187.74 0.019531c-0.32031-2.9219-0.32031-5.8398 0-8.7617l64 49.922 71.461 55.68 9.3789 7.2617-137.82 106.66h0.019531c-4.9609-6.6211-7.4609-14.762-7.0391-23.039zm36.262 36.48c-6.7812-0.058594-13.422-1.9805-19.199-5.5391l138.46-106.66 18.781 14.5c16.801 13.102 40.359 13.102 57.16 0l18.781-14.5 138.46 106.66c-5.7812 3.5586-12.422 5.4805-19.199 5.5391zm369.5-36.48c0.019532 8.8398-3.2383 17.359-9.1797 23.898l-137.82-106.66 145.92-113.28h0.019531c0.67969 2.8594 1.0391 5.8008 1.0586 8.7383z"/>
</svg>
