<svg width="40" height="40" version="1.1" viewBox="0 0 512 512" xmlns="http://www.w3.org/2000/svg">
 <path d="m125.81 341.36c0 5.2969-2.1016 10.371-5.8438 14.117-3.7461 3.7422-8.8203 5.8438-14.117 5.8438-5.293 0-10.371-2.1016-14.113-5.8438-3.7422-3.7461-5.8477-8.8203-5.8477-14.117 0-5.293 2.1055-10.371 5.8477-14.113 3.7422-3.7422 8.8203-5.8477 14.113-5.8477 5.293 0.007812 10.367 2.1133 14.109 5.8555 3.7422 3.7422 5.8477 8.8125 5.8516 14.105zm207.52-41.242c-18.168 18.281-43.535 27.527-69.207 25.219-25.676-2.3047-48.988-15.922-63.609-37.148-14.625-21.227-19.035-47.859-12.043-72.668 6.9961-24.809 24.672-45.219 48.227-55.68 0.33203-0.17969 0.67188-0.33984 1.0195-0.47266 24.863-10.766 53.328-9.2734 76.934 4.0273 23.602 13.301 39.617 36.879 43.285 63.723 3.668 26.844-5.4375 53.855-24.605 73zm-11.309-111.23c-10.09-10.086-22.996-16.875-37.023-19.473-14.027-2.6016-28.516-0.88672-41.547 4.9141-4.1797 29.16-18.801 55.816-41.148 75.008 3.3633 22.406 17.277 41.832 37.402 52.238 20.125 10.402 44.023 10.516 64.246 0.30469 20.223-10.211 34.32-29.508 37.898-51.879s-3.7969-45.102-19.828-61.113zm168.28 233.55-34.641 34.641h0.003906c-3.6719 3.6367-8.6328 5.6797-13.801 5.6797-5.1719 0-10.129-2.043-13.801-5.6797l-75.762-75.762c-3.6484-3.6641-5.6992-8.625-5.6992-13.797 0-5.1758 2.0508-10.137 5.6992-13.801l3.1992-3.1211-14.988-14.988c-23.773 16.848-52.922 24.352-81.879 21.074-28.957-3.2734-55.691-17.102-75.102-38.84-19.41-21.734-30.133-49.859-30.125-79 0.027344-7.0234 0.67188-14.031 1.9258-20.941-5.9609 3.8594-12.344 7.0195-19.031 9.4141-3.0195 0.97266-5.6602 2.8711-7.5391 5.4258-1.8828 2.5586-2.9102 5.6406-2.9375 8.8164v36.32c0 7.1445-3.8125 13.746-10 17.32-6.1914 3.5703-13.812 3.5703-20 0-6.1914-3.5742-10-10.176-10-17.32v-36.32c0.089844-11.445 3.7109-22.578 10.371-31.887 6.6562-9.3086 16.027-16.332 26.828-20.113 11.348-3.9375 20.961-11.727 27.156-22.02 6.1992-10.289 8.5938-22.43 6.7617-34.301-1.8594-11.629-7.582-22.285-16.25-30.258-8.668-7.9688-19.77-12.781-31.508-13.664-12.277-0.81641-24.445 2.7812-34.305 10.145-9.8555 7.3672-16.758 18.012-19.457 30.016-1.1562 4.8828-4.1094 9.1523-8.2734 11.957-4.1602 2.8008-9.2266 3.9336-14.188 3.1719s-9.4492-3.3633-12.578-7.2891c-3.8906-4.8516-5.3125-11.234-3.8398-17.277 4.2227-18.34 14.035-34.918 28.078-47.441 16.785-15.035 38.523-23.363 61.059-23.387 22.535-0.027344 44.289 8.25 61.109 23.25 16.82 14.996 27.527 35.664 30.074 58.059 0.56641 5.4062 0.67578 10.855 0.31641 16.281 29.906-24.352 69.785-32.641 106.92-22.223 37.129 10.418 66.875 38.242 79.746 74.598 12.871 36.355 7.2578 76.699-15.047 108.16l14.945 14.945 3.1992-3.1992v-0.003907c3.6641-3.6523 8.6289-5.6992 13.801-5.6992s10.137 2.0469 13.801 5.6992l75.762 75.762h-0.003906c3.6523 3.6641 5.6992 8.625 5.6992 13.797s-2.0469 10.137-5.6992 13.801zm-145.66-111.01c19.254-19.25 30.066-45.359 30.066-72.586 0-27.223-10.812-53.336-30.062-72.586-19.254-19.25-45.363-30.066-72.59-30.066-27.223 0-53.332 10.816-72.586 30.066-19.25 19.25-30.066 45.363-30.066 72.586 0 27.227 10.816 53.336 30.066 72.586 19.27 19.223 45.371 30.02 72.586 30.02 27.219 0 53.32-10.797 72.586-30.02z"/>
</svg>
