<svg width="40" height="40" version="1.1" viewBox="0 0 512 512" xmlns="http://www.w3.org/2000/svg">
 <path d="m146.96 485.78c-10.617 0-20.602-4.1367-28.109-11.648l-80.98-80.984c-7.5078-7.5078-11.637-17.484-11.637-28.109 0-10.617 4.1289-20.602 11.637-28.109l173.76-173.75c25.441-25.441 63.496-33.316 96.941-20.051 4.0664 1.6094 8.6875 0.65625 11.773-2.4297l63.035-63.043c2.0547-2.0547 5.3906-2.0547 7.4453 0 2.0547 2.0547 2.0547 5.3789 0 7.4375l-63.039 63.039c-6.0586 6.0586-15.121 7.9297-23.086 4.7773-29.539-11.723-63.152-4.7695-85.625 17.703l-173.76 173.76c-5.5156 5.5273-8.5586 12.863-8.5586 20.664 0 7.8086 3.043 15.145 8.5586 20.672l80.973 80.973c5.5273 5.5273 12.859 8.5703 20.672 8.5703 7.8008 0 15.145-3.043 20.664-8.5664l173.76-173.76c22.473-22.461 29.422-56.07 17.711-85.625-3.1602-7.9648-1.2891-17.027 4.7695-23.086l63.043-63.043c2.0547-2.0547 5.3789-2.0547 7.4336 0 2.0547 2.0547 2.0547 5.3906 0 7.4453l-63.031 63.039c-3.0859 3.0781-4.0469 7.7031-2.4297 11.766 13.258 33.453 5.3906 71.5-20.051 96.941l-173.76 173.76c-7.5078 7.5078-17.492 11.648-28.105 11.648z" fill-rule="evenodd"/>
 <path d="m452.6 115.24h0.007813zm-66.703-42.496 53.359 53.359 12.105-12.105-53.348-53.359-12.113 12.105zm53.359 64.605c-2.3477 0-4.5508-0.90625-6.2031-2.5664l-55.832-55.832c-1.6523-1.6523-2.5664-3.8555-2.5664-6.2031 0-2.3398 0.91406-4.5391 2.5664-6.1953l14.59-14.59c3.418-3.418 8.9805-3.418 12.395 0l55.844 55.832c1.6562 1.6523 2.5664 3.8555 2.5664 6.2031 0 2.3398-0.91406 4.5391-2.5664 6.1953l-14.59 14.59c-1.6602 1.6523-3.8633 2.5664-6.1992 2.5664z" fill-rule="evenodd"/>
 <path d="m442.53 102.97c-1.9375 0-3.8008-1.0703-4.7227-2.9219-1.2891-2.6055-0.23047-5.7656 2.375-7.0508l34.074-16.91-38.348-38.34-16.898 34.074c-1.2852 2.6016-4.4414 3.6719-7.0508 2.375-2.6016-1.2891-3.6641-4.4492-2.375-7.0508l17.797-35.875c1.2969-2.6133 3.793-4.457 6.668-4.9336 2.8789-0.46484 5.8203 0.48438 7.8828 2.5391l41.191 41.191c2.0547 2.0664 3.0039 5.0156 2.5391 7.8945-0.47266 2.8789-2.3203 5.3633-4.9336 6.6602l-35.863 17.805c-0.75 0.375-1.5547 0.54687-2.3281 0.54687z" fill-rule="evenodd"/>
 <path d="m270.96 195.69c-0.59375 0-1.0352 0.10938-1.3008 0.30078-1.5078 2.0078 2.5859 14.762 17.074 29.258 14.488 14.488 27.25 18.582 29.27 17.055 1.5195-2.0117-2.5742-14.762-17.074-29.262-12.625-12.625-23.934-17.355-27.969-17.355zm43.793 57.395c-10.277 0-24.383-9.3164-35.461-20.398-14.734-14.734-26.363-34.84-17.055-44.141 9.3008-9.3086 29.398 2.3203 44.141 17.062 14.742 14.734 26.363 34.84 17.062 44.141-2.3086 2.3125-5.2891 3.3359-8.6875 3.332z" fill-rule="evenodd"/>
 <path d="m149.43 417.05c-3.3242 0-7.0703-0.77734-11.109-2.3398-7.9922-3.0977-16.625-9.0352-24.316-16.719-17.438-17.449-23.887-37.316-14.992-46.215l163.23-163.23c2.0547-2.0547 5.3789-2.0547 7.4336 0 2.0547 2.0547 2.0547 5.3906 0 7.4453l-163.23 163.23c-3.25 3.25 1.0664 17.41 14.988 31.332 6.5781 6.5781 14.113 11.812 20.672 14.344 6.0195 2.3281 9.5 1.8086 10.66 0.65625l163.23-163.23c2.0547-2.0547 5.3906-2.0547 7.4453 0 2.0547 2.0547 2.0547 5.3906 0 7.4453l-163.23 163.21c-2.6953 2.7031-6.3867 4.0664-10.789 4.0664z" fill-rule="evenodd"/>
 <path d="m111.04 392c-1.3438 0-2.6953-0.51172-3.7188-1.5352-2.0547-2.0547-2.0547-5.3906 0-7.4453l165.23-165.23c2.0547-2.0547 5.3789-2.0547 7.4336 0 2.0547 2.0547 2.0547 5.3906 0 7.4453l-165.23 165.23c-1.0234 1.0234-2.375 1.5352-3.7188 1.5352z" fill-rule="evenodd"/>
</svg>
