<svg width="40" height="40" version="1.1" viewBox="0 0 512 512" xmlns="http://www.w3.org/2000/svg">
 <path d="m255.52 310.62c-6.2109 0-11.25-5.0391-11.25-11.25v-10.641c0-17.086 10.395-28.785 19.562-39.105 7.6328-8.582 14.84-16.699 16.617-27.531 1.457-8.8477 1.8164-21.012-4.7227-28.719-6.0508-7.1328-16.23-8.6289-23.707-8.6289-7.6406 0-13.227 1.8984-16.605 5.6406-5.4766 6.0703-4.7383 15.836-4.7305 15.93 0.63672 6.1797-3.8516 11.711-10.035 12.348-6.168 0.59375-11.711-3.8516-12.348-10.035-0.20703-2-1.668-19.93 10.406-33.312 7.8203-8.6797 19.027-13.074 33.312-13.074 17.535 0 31.664 5.7266 40.863 16.566 6.6875 7.875 13.805 22.41 9.7773 46.926-2.8398 17.262-13.023 28.727-22.004 38.832-8.6133 9.6836-13.887 16.031-13.887 24.156v10.641c0 6.2188-5.0391 11.258-11.25 11.258z" fill="#fff"/>
 <path d="m256 349.75c-6.2109 0-11.25-5.0391-11.25-11.25v-4.1094c0-6.2109 5.0391-11.25 11.25-11.25s11.25 5.0391 11.25 11.25v4.1094c0 6.2109-5.0391 11.25-11.25 11.25z" fill="#fff"/>
 <path d="m424.75 496h-337.5c-6.2109 0-11.25-5.0391-11.25-11.25v-427.5c0-6.2109 5.0391-11.25 11.25-11.25h337.5c6.2109 0 11.25 5.0391 11.25 11.25v427.5c0 6.2109-5.0391 11.25-11.25 11.25zm-326.25-22.5h315v-405h-315z" fill="#fff"/>
 <path d="m154.75 98.5c-6.2109 0-11.25-5.0391-11.25-11.25v-60c0-6.2109 5.0391-11.25 11.25-11.25s11.25 5.0391 11.25 11.25v60c0 6.2109-5.0391 11.25-11.25 11.25z" fill="#fff"/>
 <path d="m222.25 98.5c-6.2109 0-11.25-5.0391-11.25-11.25v-60c0-6.2109 5.0391-11.25 11.25-11.25s11.25 5.0391 11.25 11.25v60c0 6.2109-5.0391 11.25-11.25 11.25z" fill="#fff"/>
 <path d="m289.75 98.5c-6.2109 0-11.25-5.0391-11.25-11.25v-60c0-6.2109 5.0391-11.25 11.25-11.25s11.25 5.0391 11.25 11.25v60c0 6.2109-5.0391 11.25-11.25 11.25z" fill="#fff"/>
 <path d="m357.25 98.5c-6.2109 0-11.25-5.0391-11.25-11.25v-60c0-6.2109 5.0391-11.25 11.25-11.25s11.25 5.0391 11.25 11.25v60c0 6.2109-5.0391 11.25-11.25 11.25z" fill="#fff"/>
</svg>
