<?xml version="1.0" encoding="UTF-8"?>
<svg width="512pt" height="512pt" version="1.1" viewBox="0 0 512 512" xmlns="http://www.w3.org/2000/svg">
 <path d="m40.668 471.31c3.4844 3.5234 7.8945 6 12.719 7.1406 4.8281 1.1406 9.875 0.89844 14.57-0.69141l72.168-24.051v-0.003907c35.262 20.711 75.422 31.605 116.31 31.555 15.594-0.011719 31.148-1.5664 46.438-4.6484 54.246-11.324 102.56-41.902 136.02-86.078 33.457-44.18 49.797-98.973 45.996-154.26-3.8008-55.285-27.484-107.33-66.672-146.51-39.188-39.188-91.23-62.863-146.52-66.66-55.285-3.7969-110.08 12.547-154.25 46.008-44.176 33.461-74.75 81.777-86.07 136.03-11.402 55.703-1.8164 113.65 26.918 162.72l-24.043 72.164c-1.5898 4.6953-1.832 9.7422-0.69922 14.566 1.1367 4.8242 3.6016 9.2344 7.1172 12.727zm22.082-255.86c9.7891-46.648 36.125-88.184 74.141-116.93s85.152-42.777 132.7-39.492c47.551 3.2812 92.309 23.656 126.01 57.359 33.703 33.707 54.078 78.465 57.363 126.02 3.2812 47.551-10.746 94.684-39.496 132.7-28.75 38.02-70.281 64.352-116.93 74.141-48.707 10.266-99.492 1.6055-142.04-24.219-4.1406-2.5039-8.8867-3.8281-13.73-3.832-2.8164-0.003906-5.6172 0.44922-8.2891 1.3438l-64.5 21.5 21.477-64.48c2.457-7.3477 1.5586-15.402-2.457-22.031-25.848-42.555-34.516-93.352-24.25-142.07z" fill="#fff"/>
 <path d="m277.33 373.33c0 11.785-9.5508 21.336-21.332 21.336s-21.332-9.5508-21.332-21.336c0-11.781 9.5508-21.332 21.332-21.332s21.332 9.5508 21.332 21.332" fill="#fff"/>
 <path d="m192 208c4.2422 0 8.3125-1.6875 11.312-4.6875s4.6875-7.0703 4.6875-11.312c-0.003906-11.656 4.2305-22.914 11.914-31.68 7.6836-8.7656 18.293-14.434 29.852-15.953 11.555-1.5195 23.27 1.2188 32.957 7.6992 9.6875 6.4805 16.691 16.266 19.695 27.523 3.0078 11.262 1.8164 23.234-3.3516 33.68-5.168 10.449-13.957 18.66-24.734 23.105-10.367 4.4805-19.168 11.941-25.281 21.438-6.1133 9.4922-9.2656 20.594-9.0508 31.887v8.9688c0 5.7148 3.0508 10.996 8 13.855 4.9492 2.8594 11.051 2.8594 16 0 4.9492-2.8594 8-8.1406 8-13.855v-8.9688c-0.15234-4.9492 1.1445-9.832 3.7344-14.051 2.5859-4.2188 6.3516-7.5938 10.828-9.6992 17.945-7.4141 32.578-21.102 41.18-38.508 8.5977-17.406 10.578-37.344 5.5625-56.102-5.0117-18.758-16.676-35.051-32.812-45.844-16.141-10.793-35.652-15.352-54.902-12.824-19.25 2.5312-36.922 11.973-49.727 26.566-12.805 14.594-19.863 33.348-19.863 52.762 0 4.2422 1.6875 8.3125 4.6875 11.312s7.0703 4.6875 11.312 4.6875z" fill="#fff"/>
</svg>
