<?xml version="1.0" encoding="UTF-8"?>
<svg width="1200pt" height="1200pt" version="1.1" viewBox="0 0 1200 1200" xmlns="http://www.w3.org/2000/svg">
 <g>
  <rect width="1200" height="1200" fill="transparent"/>
  <path d="m902.29 686.15c-0.75391-7.5586-5.2891-14.359-12.848-17.383l-163.23-82.371c31.738-64.992 55.922-126.96 55.922-163.99 0-99.754-81.617-181.37-181.37-181.37-99.754 0-181.37 81.617-181.37 181.37 0 40.809 29.473 111.85 65.746 184.39l-107.31 18.137c-7.5586 1.5117-13.602 6.0469-17.383 12.848l-59.703 131.5c-5.2891 10.578-0.75391 24.184 9.8242 29.473l284.9 156.43c3.7773 1.5117 7.5586 3.0234 11.336 3.0234 1.5117 0 3.0234 0 4.5352-0.75391l243.34-49.879c6.8008-1.5117 12.848-6.0469 15.871-12.09 3.0234-6.0469 3.0234-13.602 0.75391-19.648l-48.367-108.07 72.547-62.723c4.543-3.7891 7.5664-11.344 6.8125-18.902zm-302.29-399.02c74.816 0 135.27 60.457 135.27 135.27 0 40.809-46.098 145.1-123.18 278.86-3.7773 6.0469-9.8242 6.8008-12.09 6.8008s-8.3125-0.75391-12.09-6.8008c-77.086-133.76-123.18-238.05-123.18-278.86 0-74.816 60.457-135.27 135.27-135.27zm179.11 457.96c-7.5586 6.8008-9.8242 17.383-6.0469 26.449l43.832 97.488-207.07 42.32-259.21-142.07 46.098-101.27 109.58-18.895c13.602 25.695 27.961 51.387 41.562 74.816 10.578 18.895 30.23 30.23 52.145 30.23s40.809-11.336 52.145-30.23c17.383-30.23 36.273-63.48 53.656-96.73l133 66.504z" fill="#fff"/>
  <path d="m687.66 422.41c0-48.367-39.297-87.664-87.664-87.664s-87.664 39.297-87.664 87.664c0.003906 48.363 39.301 87.66 87.664 87.66 48.367 0 87.664-39.297 87.664-87.66zm-129.23 0c0-22.672 18.895-41.562 41.562-41.562 22.672 0 41.562 18.895 41.562 41.562 0.003906 22.672-18.891 41.562-41.562 41.562-22.668 0-41.562-18.137-41.562-41.562z" fill="#fff"/>
 </g>
</svg>
