<?xml version="1.0" encoding="UTF-8"?>
<svg width="1200pt" height="1200pt" version="1.1" viewBox="0 0 1200 1200" xmlns="http://www.w3.org/2000/svg">
 <g>
  <rect width="1200" height="1200" fill="transparent"/>
  <path d="m839.8 323.2h-479.61c-11.562 0-22.09 4.6719-29.715 12.191-7.6328 7.5195-12.371 17.887-12.371 29.285v411.08c0 11.395 4.7383 21.766 12.371 29.285 7.6328 7.5195 18.152 12.191 29.715 12.191h479.61c11.562 0 22.09-4.6719 29.715-12.191 7.6328-7.5195 12.371-17.887 12.371-29.285v-411.08c0-11.395-4.7383-21.766-12.371-29.285-7.6328-7.5195-18.152-12.191-29.715-12.191zm-463.49 88.375c4.3594 0 8.3359 1.7617 11.215 4.6094 2.8867 2.8398 4.6797 6.7578 4.6797 11.055v63.547c0 4.3008-1.793 8.2148-4.6797 11.055s-6.8555 4.6094-11.215 4.6094-8.3359-1.7695-11.215-4.6094c-2.8867-2.8398-4.6797-6.7578-4.6797-11.055v-63.547c0-4.3008 1.793-8.2148 4.6797-11.055 2.8867-2.8398 6.8555-4.6094 11.215-4.6094zm0 222.42c4.3594 0 8.3359 1.7695 11.215 4.6094 2.8867 2.8398 4.6797 6.7578 4.6797 11.055v63.547c0 4.3008-1.793 8.2148-4.6797 11.055-2.8867 2.8398-6.8555 4.6094-11.215 4.6094s-8.3359-1.7617-11.215-4.6094c-2.8789-2.8477-4.6797-6.7578-4.6797-11.055v-63.547c0-4.3008 1.793-8.2148 4.6797-11.055 2.8867-2.8398 6.8555-4.6094 11.215-4.6094zm-8.2891 110.15c-5.6211-1.4648-10.656-4.3906-14.652-8.3359-5.8789-5.7969-9.5312-13.801-9.5312-22.609v-63.547c0-8.8125 3.6484-16.816 9.5312-22.609 3.9961-3.9375 9.0312-6.8633 14.652-8.3359v-96.996c-5.6211-1.4648-10.656-4.3906-14.652-8.3359-5.8789-5.7969-9.5312-13.801-9.5312-22.609v-63.547c0-8.8125 3.6484-16.816 9.5312-22.609 3.9961-3.9375 9.0312-6.8633 14.652-8.3359v-26.648c0-4.5117 3.7109-8.168 8.2891-8.168h447.36c4.5781 0 8.2891 3.6562 8.2891 8.168v401.15c0 4.5117-3.7109 8.168-8.2891 8.168l-447.36-0.003906c-4.5781 0-8.2891-3.6562-8.2891-8.168v-26.648zm16.582-125.43v-96.996c5.6211-1.4648 10.656-4.3906 14.652-8.3359 5.8789-5.7969 9.5312-13.801 9.5312-22.609v-63.547c0-8.8125-3.6484-16.816-9.5312-22.609-3.9961-3.9375-9.0312-6.8633-14.652-8.3359v-18.477h430.78v384.81l-430.78-0.003906v-18.477c5.6211-1.4648 10.656-4.3906 14.652-8.3359 5.8789-5.7969 9.5312-13.801 9.5312-22.609v-63.547c0-8.8125-3.6484-16.816-9.5312-22.609-3.9961-3.9375-9.0312-6.8633-14.652-8.3359zm306.92 53.09 10.066 44.535c0.1875 0.72656 0.28125 1.4805 0.25781 2.2656-0.12891 4.4961-3.9219 8.0391-8.4883 7.9141l-43.18-1.2305c-0.55859 0.007813-1.125-0.039063-1.6914-0.13672-4.4883-0.83203-7.4453-5.0859-6.6055-9.5156l8.125-41.98c-2.9609-2.2812-5.4922-5.0547-7.4805-8.1992-3.0469-4.8359-4.8047-10.52-4.8047-16.59 0-8.6914 3.5742-16.559 9.3555-22.254 5.7812-5.6992 13.762-9.2188 22.582-9.2188 8.8203 0 16.801 3.5234 22.582 9.2188 5.7812 5.6992 9.3555 13.566 9.3555 22.254 0 5.4648-1.4297 10.625-3.9453 15.137-1.625 2.9102-3.6953 5.5391-6.1289 7.793zm-31.566 37.469 7.3242-37.824c0.11328-0.53516 0.17188-1.0898 0.17969-1.625v-0.17188-0.007812c-0.015625-1.125-0.27344-2.2148-0.72656-3.2109v-0.023437l-0.066406-0.12109-0.039063-0.082031-0.039062-0.074219-0.054688-0.10547-0.03125-0.054687-0.074218-0.13672c-0.53516-0.96094-1.2695-1.8203-2.1758-2.5078h-0.007812l-0.14453-0.11328c-0.42188-0.30859-0.88281-0.58203-1.3672-0.80859-2.5156-1.2539-4.6484-3.1875-6.1445-5.5625-1.4453-2.2969-2.2812-5.0273-2.2812-7.9648 0-4.1797 1.7148-7.9648 4.4961-10.699s6.6211-4.4297 10.859-4.4297 8.0781 1.6914 10.859 4.4297c2.7812 2.7344 4.4961 6.5234 4.4961 10.699 0 2.6602-0.67969 5.1445-1.875 7.2852-1.2461 2.2383-3.0625 4.1328-5.2539 5.5-3.2266 2.0195-4.5586 5.8711-3.4766 9.3047l8.8125 38.973-23.27-0.66406zm-128.73-232.87c25.383 0 48.367 10.141 65 26.531 16.633 16.391 26.926 39.039 26.926 64.055s-10.285 47.664-26.926 64.055c-16.633 16.391-39.613 26.531-65 26.531-25.383 0-48.359-10.141-65-26.531-16.633-16.391-26.926-39.039-26.926-64.055s10.285-47.664 26.926-64.055c16.633-16.391 39.613-26.531 65-26.531zm34.469 56.617c8.8203 8.6914 14.277 20.707 14.277 33.969 0 13.27-5.457 25.277-14.277 33.969-8.8203 8.6914-21.008 14.07-34.469 14.07-13.461 0-25.648-5.3789-34.469-14.07-8.8203-8.6914-14.277-20.707-14.277-33.969 0-13.27 5.457-25.277 14.277-33.969 8.8203-8.6914 21.008-14.07 34.469-14.07 13.461 0 25.648 5.3789 34.469 14.07zm-74.301-17.062-7.1055-7.043c10.844-8.5234 24.121-14.156 38.648-15.727v9.9297c-11.781 1.4727-22.582 6.0312-31.543 12.84zm-24.977 42.863h-10.074c1.6094-14.457 7.4297-27.668 16.219-38.414l7.1055 7.043c-7.0273 8.8867-11.742 19.633-13.254 31.371zm11.949 46.016-7.3398 6.8086c-7.9336-10.375-13.18-22.875-14.691-36.477h10.074c1.4141 10.996 5.6445 21.129 11.949 29.668zm44.566 26.027v9.9297c-15.395-1.6641-29.391-7.8906-40.566-17.281l7.3398-6.8086c9.2812 7.5352 20.699 12.598 33.23 14.16zm48.125-12.84 7.1055 7.043c-10.844 8.5234-24.121 14.156-38.648 15.727v-9.9297c11.781-1.4727 22.582-6.0312 31.543-12.84zm24.977-42.863h10.074c-1.6094 14.457-7.4297 27.668-16.219 38.414l-7.1055-7.043c7.0273-8.8867 11.742-19.633 13.246-31.371zm-11.949-46.016 7.3398-6.8086c7.9336 10.375 13.18 22.875 14.691 36.477h-10.074c-1.4141-10.996-5.6445-21.129-11.949-29.668zm-44.566-26.027v-9.9297c15.395 1.6641 29.391 7.8906 40.566 17.281l-7.3398 6.8086c-9.2812-7.5352-20.699-12.598-33.23-14.16zm223.96-12.113c2.3516 0 4.4961 0.95312 6.0547 2.4922 1.5586 1.5352 2.5312 3.6484 2.5312 5.9688v133.55c0 2.3203-0.96875 4.4297-2.5312 5.9688-1.5625 1.543-3.7031 2.4922-6.0625 2.4922s-4.4961-0.95312-6.0547-2.4922c-1.5586-1.5352-2.5312-3.6484-2.5312-5.9688v-133.55c0-2.3203 0.96875-4.4375 2.5312-5.9688 1.5586-1.5352 3.7031-2.4922 6.0625-2.4922zm0-16.34c6.9297 0 13.227 2.7891 17.781 7.2773 4.5586 4.4883 7.3828 10.691 7.3828 17.523v133.55c0 6.832-2.8281 13.027-7.3828 17.523-4.5586 4.4883-10.852 7.2773-17.781 7.2773-6.9297 0-13.227-2.7891-17.781-7.2773-4.5586-4.4883-7.3828-10.691-7.3828-17.523v-133.55c0-6.832 2.8281-13.027 7.3828-17.523 4.5586-4.4883 10.852-7.2773 17.781-7.2773zm-214.38 74.719c4.5703 4.5039 7.3984 10.73 7.3984 17.609s-2.8281 13.105-7.3984 17.609c-4.5703 4.5039-10.891 7.293-17.863 7.293-6.9766 0-13.293-2.7891-17.863-7.293-4.5703-4.5039-7.3984-10.73-7.3984-17.609s2.8281-13.105 7.3984-17.609c4.5703-4.5039 10.891-7.293 17.863-7.293 6.9766 0 13.293 2.7891 17.863 7.293zm-17.863-23.633c11.555 0 22.016 4.6172 29.594 12.078 7.5703 7.4648 12.258 17.773 12.258 29.164 0 11.387-4.6836 21.695-12.258 29.164-7.5703 7.4648-18.039 12.078-29.594 12.078-11.555 0-22.016-4.6172-29.594-12.078-7.5703-7.4648-12.258-17.773-12.258-29.164 0-11.387 4.6836-21.695 12.258-29.164 7.5703-7.4648 18.039-12.078 29.594-12.078zm-98.719 307.82h-43.871v43.234h43.871zm380.86 0h-43.871v43.234h43.871z" fill-rule="evenodd"/>
 </g>
</svg>
