<svg height="40" width= "40" viewBox="15 15 512 512" xmlns="http://www.w3.org/2000/svg">
    <path
            d="m85.332 437.33c0 2.3086 0.75 4.5547 2.1328 6.4023l40 53.332c2.0156 2.6875 5.1797 4.2656 8.5352 4.2656s6.5195-1.5781 8.5352-4.2656l31.465-41.973 31.465 41.973c2.0977 2.5547 5.2305 4.0352 8.5352 4.0352s6.4375-1.4805 8.5352-4.0352l31.465-41.973 31.465 41.973c2.0977 2.5547 5.2305 4.0352 8.5352 4.0352s6.4375-1.4805 8.5352-4.0352l31.465-41.973 31.465 41.973c2.0156 2.6875 5.1797 4.2656 8.5352 4.2656s6.5195-1.5781 8.5352-4.2656l40-53.332c1.3828-1.8477 2.1328-4.0938 2.1328-6.4023v-320c0.082031-0.65234 0.082031-1.3164 0-1.9727-0.18359-0.90625-0.48828-1.7891-0.90625-2.6133l-0.53516-0.74609c-0.46094-0.82422-1.0352-1.5781-1.707-2.2383l-96-96c-0.64844-0.65234-1.3828-1.207-2.1875-1.6562l-0.58594-0.32031c-0.82812-0.5-1.7266-0.875-2.668-1.1172-0.6875-0.09375-1.3867-0.09375-2.0781 0h-202.67c-8.4844 0-16.625 3.3711-22.625 9.3711-6.0039 6-9.375 14.141-9.375 22.629zm304.91-330.66h-52.801 0.003906c-1.7969 0-3.5195-0.71484-4.7891-1.9844-1.2734-1.2695-1.9844-2.9922-1.9844-4.7891v-52.801zm-283.57-64c0-5.8906 4.7734-10.668 10.664-10.668h192v67.895c0 7.4531 2.9609 14.602 8.2344 19.875 5.2695 5.2695 12.418 8.2305 19.875 8.2305h67.891v305.76l-29.332 39.148-31.52-41.977c-2.0039-2.6719-5.1406-4.25-8.4805-4.2656-3.3555 0-6.5195 1.5781-8.5352 4.2656l-31.465 41.973-31.465-41.973c-2.0977-2.5547-5.2305-4.0352-8.5352-4.0352s-6.4375 1.4805-8.5352 4.0352l-31.465 41.973-31.465-41.973c-2.0156-2.6875-5.1797-4.2656-8.5352-4.2656s-6.5195 1.5781-8.5352 4.2656l-31.465 41.973-29.332-39.145z"/>
    <path
            d="m138.67 106.67h122.66c5.8906 0 10.668-4.7773 10.668-10.668s-4.7773-10.668-10.668-10.668h-122.66c-5.8906 0-10.668 4.7773-10.668 10.668s4.7773 10.668 10.668 10.668z"/>
    <path
            d="m138.67 186.67h229.33c5.8906 0 10.668-4.7773 10.668-10.668s-4.7773-10.668-10.668-10.668h-229.33c-5.8906 0-10.668 4.7773-10.668 10.668s4.7773 10.668 10.668 10.668z"/>
    <path
            d="m138.67 246.67h229.33c5.8906 0 10.668-4.7773 10.668-10.668s-4.7773-10.668-10.668-10.668h-229.33c-5.8906 0-10.668 4.7773-10.668 10.668s4.7773 10.668 10.668 10.668z"/>
    <path
            d="m138.67 306.67h229.33c5.8906 0 10.668-4.7773 10.668-10.668s-4.7773-10.668-10.668-10.668h-229.33c-5.8906 0-10.668 4.7773-10.668 10.668s4.7773 10.668 10.668 10.668z"/>
    <path
            d="m368 366.67c5.8906 0 10.668-4.7773 10.668-10.668s-4.7773-10.668-10.668-10.668h-229.33c-5.8906 0-10.668 4.7773-10.668 10.668s4.7773 10.668 10.668 10.668z"/>
</svg>