<svg width="30" height="30" version="1.1" viewBox="0 -25 512 512" xmlns="http://www.w3.org/2000/svg">
 <path d="m256 213.33c29.406 0 53.332-23.926 53.332-53.332s-23.926-53.332-53.332-53.332-53.332 23.926-53.332 53.332 23.926 53.332 53.332 53.332zm0-85.332c17.645 0 32 14.355 32 32s-14.355 32-32 32-32-14.355-32-32 14.355-32 32-32z" fill="#fff"/>
 <path d="m339.11 325.75c27.176-43.969 55.562-104.51 55.562-165.75 0-76.457-62.207-138.67-138.67-138.67-76.457 0-138.67 62.211-138.67 138.67 0 61.246 28.395 121.8 55.562 165.75-86.152 12.426-140.89 42.965-140.89 79.582 0 55.426 115.4 85.332 224 85.332s224-29.91 224-85.332c0-36.629-54.742-67.168-140.89-79.582zm-83.105-283.08c64.691 0 117.33 52.641 117.33 117.33 0 62.871-33.258 126.22-61.172 168.31-22.176 33.602-44.77 59.68-56.16 72.137-11.383-12.449-33.996-38.539-56.18-72.16-27.895-42.066-61.152-105.41-61.152-168.29 0-64.691 52.641-117.33 117.33-117.33zm0 426.66c-119.43 0-202.67-33.727-202.67-64 0-21.312 46.441-49.047 132.43-59.734 31.242 46.164 61.367 76.609 62.688 77.93 1.9961 2.0078 4.7188 3.1406 7.5547 3.1406s5.5586-1.1289 7.5508-3.1367c1.3242-1.3242 31.457-31.777 62.676-77.93 85.996 10.688 132.44 38.418 132.44 59.73 0 30.273-83.234 64-202.67 64z" fill="#fff"/>
</svg>
